<svg id="Capa_1" enable-background="new 0 0 502 502" height="512" viewBox="0 0 502 502" width="512" xmlns="http://www.w3.org/2000/svg" xmlns:xlink="http://www.w3.org/1999/xlink"><linearGradient id="SVGID_1_" gradientUnits="userSpaceOnUse" x1="246.911" x2="246.911" y1="502" y2="381.203"><stop offset=".0212" stop-color="#bbe3f4"/><stop offset="1" stop-color="#78c5e6"/></linearGradient><linearGradient id="SVGID_2_" gradientUnits="userSpaceOnUse" x1="251.001" x2="251.001" y1="220.127" y2="0"><stop offset="0" stop-color="#d66743"/><stop offset=".9788" stop-color="#e79580"/></linearGradient><linearGradient id="lg1"><stop offset="0" stop-color="#fed2a4"/><stop offset=".9788" stop-color="#ffbd86"/></linearGradient><radialGradient id="SVGID_3_" cx="68.937" cy="229.378" gradientUnits="userSpaceOnUse" r="45.654" xlink:href="#lg1"/><radialGradient id="SVGID_4_" cx="433.063" cy="229.378" gradientUnits="userSpaceOnUse" r="45.654" xlink:href="#lg1"/><linearGradient id="SVGID_5_" gradientUnits="userSpaceOnUse" x1="68.946" x2="68.946" xlink:href="#lg1" y1="218.288" y2="219.96"/><linearGradient id="SVGID_6_" gradientUnits="userSpaceOnUse" x1="251.004" x2="251.004" xlink:href="#lg1" y1="116.382" y2="401.183"/><linearGradient id="SVGID_7_" gradientUnits="userSpaceOnUse" x1="293.637" x2="293.637" y1="502" y2="361.651"><stop offset=".0217" stop-color="#6a647f"/><stop offset="1" stop-color="#4f4c5f"/></linearGradient><linearGradient id="SVGID_8_" gradientUnits="userSpaceOnUse" x1="356.616" x2="356.616" xlink:href="#lg1" y1="502" y2="441.601"/><linearGradient id="SVGID_9_" gradientUnits="userSpaceOnUse" x1="260.04" x2="327.233" y1="361.651" y2="361.651"><stop offset="0" stop-color="#8d889d"/><stop offset=".9777" stop-color="#c1bfc5"/></linearGradient><g><path d="m334.02 381.203h-166.04s-32.066 20.109-46.483 69.813c-4.194 14.428-6.901 31.348-6.901 50.985h60.204 79.568l24.891-11.337 71.759 11.336 28.208-55.15c-14.944-46.66-45.206-65.647-45.206-65.647z" fill="url(#SVGID_1_)"/><path d="m31.878 220.127v-2.005c.553-120.091 98.693-217.938 218.78-218.122h.342c58.531 0 113.558 22.793 154.945 64.18 41.386 41.387 64.179 96.414 64.179 154.944z" fill="url(#SVGID_2_)"/><circle cx="68.937" cy="229.378" fill="url(#SVGID_3_)" r="45.654"/><circle cx="433.063" cy="229.378" fill="url(#SVGID_4_)" r="45.654"/><g><path d="m68.943 219.96c-.001-.279.007-.557.007-.836s-.008-.557-.007-.836z" fill="url(#SVGID_5_)"/><path d="m413.79 137.532c-8.641-17.204-28.805-25.271-47.033-19.076-32.902 11.181-72.902 17.738-116.043 17.738-42.903 0-82.699-6.486-115.496-17.555-18.207-6.145-38.31 1.921-46.952 19.084-12.353 24.533-19.315 52.195-19.316 81.402.006 100.009 81.654 181.905 181.765 182.059 100.677.154 182.344-81.418 182.344-182.059 0-29.337-6.941-57.051-19.269-81.593z" fill="url(#SVGID_6_)"/></g><g><ellipse cx="127.552" cy="266.787" fill="#fb99ac" rx="20.98" ry="16.861"/><ellipse cx="374.448" cy="266.787" fill="#fb99ac" rx="20.98" ry="16.861"/><circle cx="163.52" cy="225.184" fill="#fff" r="41.603"/><circle cx="338.48" cy="225.184" fill="#fff" r="41.603"/><g fill="#383842"><g><circle cx="163.52" cy="225.184" r="24.795"/><circle cx="338.48" cy="225.184" r="24.795"/></g><path d="m251 266.072c-6.882 0-13.765-2.603-19.379-7.809-2.025-1.877-2.145-5.041-.267-7.066 1.877-2.025 5.042-2.144 7.065-.267 7.406 6.868 17.754 6.868 25.16 0 2.023-1.876 5.188-1.759 7.065.267 1.878 2.025 1.759 5.188-.267 7.066-5.612 5.207-12.495 7.809-19.377 7.809z"/></g></g><g><path d="m173.523 46.414c-1.957-5.164.642-10.938 5.807-12.895 8.727-3.308 17.849-6.052 27.114-8.156 5.387-1.219 10.743 2.15 11.966 7.537 1.223 5.386-2.151 10.743-7.537 11.967-8.363 1.899-16.591 4.373-24.455 7.354-5.183 1.966-10.945-.661-12.895-5.807z" fill="#f3cac0"/></g><g><path d="m130.09 74.132c-3.24-4.473-2.24-10.725 2.233-13.964 3.947-2.858 8.062-5.598 12.233-8.141 4.716-2.875 10.869-1.383 13.744 3.332s1.384 10.869-3.332 13.744c-3.721 2.269-7.393 4.712-10.914 7.262-4.472 3.241-10.725 2.241-13.964-2.233z" fill="#f3cac0"/></g><path d="m174.176 454.962c-4.149 0-7.513 3.364-7.513 7.513v39.525h15.026v-39.525c.001-4.149-3.363-7.513-7.513-7.513z" fill="#59c2e7"/><path d="m362.214 441.601v-50.643c0-16.186-13.122-29.308-29.308-29.308h-78.539c-16.186 0-29.308 13.122-29.308 29.308v81.733c0 16.186 13.122 29.308 29.308 29.308h96.651z" fill="url(#SVGID_7_)"/><path d="m351.018 472.177-24.354-13.15c-1.574-.85-3.017-1.925-4.282-3.19-11.12-11.12-30.311-4.144-31.455 11.541-.107 1.461-.161 2.936-.161 4.423 0 11.001 2.978 21.313 8.148 30.199h52.104z" fill="#4f4c5f"/><path d="m362.214 441.601h-11.196c-16.679 0-30.199 13.521-30.199 30.199 0 16.679 13.521 30.199 30.199 30.199h11.196c16.679 0 30.199-13.521 30.199-30.199s-13.521-30.199-30.199-30.199z" fill="url(#SVGID_8_)"/><path d="m307.681 342.099h-28.088c-10.798 0-19.552 8.754-19.552 19.552 0 10.798 8.754 19.552 19.552 19.552h28.088c10.798 0 19.552-8.754 19.552-19.552 0-10.799-8.754-19.552-19.552-19.552z" fill="url(#SVGID_9_)"/></g></svg>